<svg xmlns="http://www.w3.org/2000/svg" xmlns:xlink="http://www.w3.org/1999/xlink" version="1.1" x="0px" y="0px" viewBox="0 0 100 125" enable-background="new 0 0 100 100" xml:space="preserve"><g><path d="M73.805,9.028c0.425,0.246,0.972,0.099,1.217-0.328c0.245-0.426,0.1-0.97-0.326-1.215   c-0.427-0.249-0.972-0.102-1.218,0.324C73.231,8.237,73.377,8.783,73.805,9.028z"/><circle cx="75" cy="12.794" r="0.891"/><circle cx="75.792" cy="10.176" r="0.623"/><circle cx="78.088" cy="10.062" r="0.622"/><circle cx="73.66" cy="10.518" r="0.45"/><circle cx="72.387" cy="12.725" r="0.622"/><path d="M82.272,67.567c-4.507,0-7.798-1.621-10.359-5.099c-0.094-0.126-0.241-0.201-0.398-0.201s-0.305,0.075-0.398,0.201   c-2.562,3.479-5.854,5.099-10.36,5.099c-4.505,0-7.797-1.621-10.359-5.099c-0.187-0.253-0.611-0.253-0.797,0   c-2.56,3.479-5.852,5.099-10.359,5.099c-4.506,0-7.797-1.621-10.356-5.099c-0.188-0.253-0.612-0.253-0.798,0   c-2.56,3.479-5.852,5.099-10.359,5.099c-0.273,0-0.494,0.222-0.494,0.495s0.221,0.495,0.494,0.495c4.62,0,8.056-1.586,10.758-4.98   c2.703,3.394,6.14,4.98,10.756,4.98c4.62,0,8.056-1.585,10.758-4.98c2.705,3.395,6.141,4.98,10.758,4.98   c4.618,0,8.054-1.586,10.759-4.981c2.704,3.395,6.141,4.981,10.758,4.981c0.273,0,0.495-0.221,0.495-0.495   S82.546,67.567,82.272,67.567z"/><path d="M82.272,63.629c-4.507,0-7.799-1.621-10.359-5.101c-0.094-0.126-0.241-0.201-0.398-0.201s-0.305,0.075-0.399,0.201   c-2.561,3.479-5.854,5.101-10.359,5.101s-7.798-1.621-10.358-5.101c-0.188-0.253-0.612-0.253-0.798,0   c-2.559,3.479-5.851,5.1-10.359,5.1c-4.506,0-7.797-1.621-10.356-5.101c-0.188-0.253-0.612-0.253-0.798,0   c-2.559,3.479-5.851,5.1-10.359,5.1c-0.273,0-0.494,0.221-0.494,0.494s0.221,0.495,0.494,0.495c4.62,0,8.056-1.586,10.758-4.982   c2.703,3.396,6.139,4.982,10.756,4.982c4.62,0,8.057-1.586,10.758-4.982c2.705,3.396,6.141,4.982,10.758,4.982   c4.618,0,8.055-1.586,10.759-4.982c2.703,3.396,6.139,4.982,10.758,4.982c0.273,0,0.495-0.222,0.495-0.495   S82.546,63.629,82.272,63.629z"/><path d="M17.727,60.679c4.62,0,8.056-1.586,10.758-4.98c0.709,0.891,1.459,1.644,2.28,2.289c0.213,0.168,0.525,0.132,0.695-0.083   c0.168-0.215,0.132-0.526-0.084-0.695c-0.905-0.711-1.72-1.568-2.492-2.619c-0.094-0.127-0.242-0.202-0.399-0.202   s-0.306,0.075-0.398,0.202c-2.559,3.479-5.852,5.099-10.359,5.099c-0.273,0-0.494,0.222-0.494,0.495S17.453,60.679,17.727,60.679z"/><path d="M82.272,59.689c-4.507,0-7.799-1.62-10.359-5.099c-0.094-0.127-0.241-0.202-0.398-0.202s-0.305,0.075-0.398,0.202   c-2.072,2.812-4.542,4.368-7.772,4.896c-0.27,0.044-0.452,0.299-0.408,0.569c0.044,0.27,0.308,0.453,0.568,0.409   c3.249-0.533,5.875-2.095,8.011-4.767c2.703,3.395,6.139,4.981,10.758,4.981c0.273,0,0.495-0.222,0.495-0.495   S82.546,59.689,82.272,59.689z"/><path d="M17.727,56.74c4.62,0,8.057-1.586,10.758-4.982c1.181,1.483,2.488,2.604,3.983,3.417c0.241,0.131,0.541,0.041,0.671-0.198   c0.131-0.24,0.042-0.541-0.198-0.671c-1.534-0.836-2.861-2.031-4.057-3.656c-0.188-0.252-0.612-0.253-0.798,0   c-2.559,3.479-5.851,5.101-10.359,5.101c-0.273,0-0.494,0.221-0.494,0.495C17.232,56.52,17.453,56.74,17.727,56.74z"/><path d="M71.913,50.65c-0.093-0.126-0.241-0.201-0.398-0.201s-0.305,0.075-0.399,0.201c-1.464,1.99-3.146,3.353-5.143,4.169   c-0.253,0.104-0.374,0.393-0.271,0.646c0.103,0.253,0.392,0.375,0.646,0.271c1.988-0.813,3.685-2.117,5.167-3.978   c2.703,3.396,6.139,4.982,10.758,4.982c0.273,0,0.495-0.221,0.495-0.495c0-0.273-0.222-0.495-0.495-0.495   C77.766,55.751,74.474,54.13,71.913,50.65z"/><path d="M27.616,80.051c0.004-0.008,0.013-0.01,0.017-0.018l6.116-10.596c0.137-0.236,0.056-0.54-0.181-0.676   c-0.238-0.135-0.539-0.055-0.677,0.181l-6.116,10.595c-0.008,0.012-0.008,0.025-0.013,0.039c-0.005,0.008-0.013,0.012-0.019,0.02   c-1.176,2.036,0.088,4.978,2.816,6.554c1.138,0.657,2.354,0.975,3.472,0.975c1.562,0,2.931-0.622,3.619-1.809   c0.007-0.012,0.007-0.027,0.014-0.04c0.005-0.008,0.015-0.011,0.019-0.019l8.938-15.483c0.137-0.237,0.056-0.54-0.182-0.677   c-0.234-0.135-0.54-0.055-0.676,0.182l-8.938,15.481c-0.007,0.012-0.007,0.024-0.013,0.036c-0.005,0.008-0.013,0.013-0.019,0.022   c-0.907,1.564-3.482,1.776-5.739,0.474c-2.256-1.305-3.357-3.638-2.454-5.202C27.609,80.078,27.61,80.064,27.616,80.051z"/><path d="M66.748,23.165c0.078,0.045,0.164,0.067,0.247,0.067c0.172,0,0.338-0.089,0.43-0.248l2.57-4.447   c0.136-0.237,0.056-0.54-0.182-0.676c-0.237-0.137-0.539-0.055-0.677,0.181l-2.569,4.447   C66.431,22.725,66.512,23.028,66.748,23.165z"/><path d="M65.751,23.903l-0.766,1.326c-0.137,0.237-0.056,0.54,0.181,0.676c0.078,0.045,0.164,0.066,0.247,0.066   c0.172,0,0.338-0.089,0.43-0.248l0.766-1.326c0.137-0.237,0.056-0.54-0.181-0.677C66.189,23.586,65.889,23.668,65.751,23.903z"/><path d="M31.785,59.955c0.078,0.045,0.163,0.067,0.246,0.067c0.172,0,0.338-0.089,0.431-0.249l14.194-24.584   c2.268-3.927,4.571-4.031,7.238-4.151c2.084-0.094,4.445-0.201,6.982-2.165c0.051-0.04,0.094-0.088,0.126-0.144l7.698-13.334   l1.837,1.06c0.001,0,0.002,0.002,0.003,0.002l3.546,2.048l-7.696,13.333c-0.031,0.056-0.053,0.118-0.062,0.181   c-0.432,3.18,0.657,5.278,1.617,7.129c1.229,2.37,2.292,4.417,0.022,8.345L59.66,61.886c-0.137,0.236-0.056,0.54,0.181,0.676   c0.078,0.045,0.164,0.067,0.247,0.067c0.172,0,0.338-0.089,0.43-0.247l8.31-14.392c2.54-4.398,1.305-6.778-0.002-9.297   c-0.926-1.785-1.883-3.63-1.527-6.445l7.689-13.321c0.102,0.021,0.203,0.04,0.307,0.04c0.133,0,0.266-0.018,0.397-0.053   c0.395-0.105,0.724-0.358,0.928-0.711c0.205-0.353,0.26-0.765,0.154-1.16c-0.105-0.395-0.359-0.725-0.713-0.929l-0.359-0.207   l5.05-5.977c0.095-0.112,0.136-0.261,0.109-0.405c-0.025-0.144-0.113-0.27-0.239-0.344l-7.127-4.114   c-0.128-0.074-0.281-0.087-0.418-0.036c-0.138,0.05-0.246,0.159-0.296,0.296l-2.653,7.363l-0.345-0.199   c-0.726-0.42-1.662-0.171-2.087,0.559c-0.335,0.583-0.236,1.296,0.191,1.777l-7.692,13.321c-2.26,1.716-4.336,1.809-6.344,1.9   c-2.836,0.128-5.513,0.249-8.052,4.646L31.604,59.279C31.468,59.515,31.549,59.818,31.785,59.955z M73.512,6.22l6.101,3.523   l-4.781,5.661l-2.763-1.595c-0.002,0-0.004,0-0.006-0.001l-1.064-0.614L73.512,6.22z M68.553,13.546   c0.148-0.257,0.476-0.347,0.734-0.198l3.314,1.912h0.001l2.963,1.71c0.126,0.071,0.214,0.188,0.252,0.328   c0.037,0.139,0.018,0.283-0.056,0.407c-0.071,0.125-0.188,0.215-0.326,0.252c-0.141,0.037-0.285,0.018-0.41-0.055l-0.014-0.008   l-0.001,0H75.01l-2.941-1.699c-0.002-0.001-0.003-0.003-0.005-0.004l-3.288-1.896c-0.002-0.002-0.004-0.004-0.007-0.006   c-0.002-0.002-0.006-0.002-0.009-0.003l-0.008-0.004C68.494,14.132,68.406,13.801,68.553,13.546z"/><path d="M56.111,69.025c-0.237-0.138-0.539-0.055-0.676,0.181l-5.786,10.023c-4.376,7.582-7.011,12.146-7.847,13.59   c-0.656,1.138-2.115,1.53-3.251,0.875l-8.421-4.864l-0.001-0.001l-8.77-5.062c-1.137-0.658-1.527-2.115-0.871-3.25   c0.673-1.171,3.088-5.354,6.509-11.279l1.82-3.152c0.137-0.237,0.056-0.54-0.181-0.676c-0.237-0.136-0.539-0.055-0.677,0.181   l-1.819,3.153c-3.422,5.925-5.837,10.109-6.51,11.28c-0.93,1.606-0.377,3.67,1.232,4.602l8.418,4.859c0,0,0,0.001,0.001,0.001   l8.773,5.065C38.586,94.857,39.163,95,39.733,95c1.166,0,2.303-0.604,2.927-1.684c0.836-1.446,3.47-6.009,7.847-13.593   l5.786-10.022C56.429,69.464,56.349,69.162,56.111,69.025z"/><path d="M39.21,82.937c-0.122-0.246-0.425-0.343-0.664-0.223c-0.245,0.122-0.345,0.419-0.222,0.665   c0.677,1.36,1.536,2.676,2.843,2.676c0.281,0,0.583-0.062,0.908-0.195c0.101-0.042,0.186-0.116,0.239-0.21l10.196-17.664   c0.137-0.236,0.056-0.539-0.181-0.675c-0.238-0.139-0.539-0.056-0.677,0.181L41.544,85.005   C41.057,85.181,40.341,85.206,39.21,82.937z"/><path d="M55.672,61.519c0.079,0.046,0.164,0.067,0.247,0.067c0.172,0,0.338-0.089,0.431-0.249l10.367-17.957   c0.105-0.183,0.083-0.413-0.057-0.573c-0.14-0.159-0.364-0.212-0.56-0.133c-0.493,0.202-1.236,0.503-2.485-2.01   c-0.645-1.294-1.658-2.938-3.794-4.174c-2.906-1.678-7.184-1.749-8.675,0.833c-0.023,0.041-0.04,0.085-0.062,0.127   c-0.01,0.015-0.025,0.023-0.035,0.04L37.033,61.771c-0.136,0.237-0.055,0.54,0.183,0.677c0.077,0.044,0.162,0.066,0.246,0.066   c0.171,0,0.338-0.089,0.43-0.248l12.914-22.372c0.328,1.492,1.459,3.003,3.16,3.987c1.701,0.981,3.576,1.204,5.033,0.742   l-7.528,13.04c-0.136,0.237-0.055,0.539,0.182,0.676c0.078,0.044,0.163,0.066,0.247,0.066c0.171,0,0.337-0.089,0.43-0.249   l8.628-14.946c0.014-0.023,0.016-0.049,0.024-0.074c0.021-0.033,0.052-0.058,0.071-0.092c0.001-0.002,0.001-0.003,0.002-0.005   c0.402-0.698,0.514-1.5,0.311-2.26c-0.252-0.941-0.957-1.771-2.043-2.396c-2.244-1.295-4.392-0.672-5.17,0.678   c-0.52,0.9-0.424,1.949,0.261,2.876c0.677,0.918,1.724,1.454,2.734,1.454c0.271,0,0.539-0.038,0.798-0.118   c0.979-0.303,1.588-1.149,1.628-2.265c0.01-0.273-0.204-0.502-0.478-0.512c-0.006,0-0.013,0-0.018,0   c-0.266,0-0.485,0.21-0.495,0.477c-0.024,0.695-0.354,1.176-0.931,1.354c-0.7,0.215-1.761-0.051-2.443-0.977   c-0.603-0.817-0.384-1.475-0.199-1.795c0.537-0.928,2.111-1.298,3.817-0.314c0.853,0.492,1.399,1.113,1.582,1.794   c0.137,0.513,0.062,1.036-0.212,1.513c-0.001,0.001-0.002,0.001-0.002,0.002c-0.903,1.563-3.477,1.775-5.735,0.473   c-2.258-1.306-3.359-3.64-2.455-5.204c1.145-1.984,4.877-1.883,7.321-0.472c1.907,1.104,2.82,2.588,3.403,3.757   c0.636,1.282,1.434,2.525,2.618,2.666l-9.856,17.072C55.355,61.08,55.436,61.382,55.672,61.519z"/></g><text x="0" y="115" fill="#000000" font-size="5px" font-weight="bold" font-family="'Helvetica Neue', Helvetica, Arial-Unicode, Arial, Sans-serif">Created by Daniel Hammer</text><text x="0" y="120" fill="#000000" font-size="5px" font-weight="bold" font-family="'Helvetica Neue', Helvetica, Arial-Unicode, Arial, Sans-serif">from the Noun Project</text></svg>